<svg width="26" height="27" viewBox="0 0 26 27" fill="none" xmlns="http://www.w3.org/2000/svg">
<path d="M13.25 10.5L14.75 5.5M13.25 10.5C14.7979 10.5 15.7468 11.3984 16.0967 12.5M13.25 10.5C11.7022 10.5 10.7533 11.3984 10.4033 12.5M14.75 5.5C11.75 5.5 11.75 1 14.75 1C17.75 1 17.75 5.5 14.75 5.5ZM16.0967 12.5L21.25 10.3333M16.0967 12.5C16.4599 13.6435 16.1777 15.0059 15.25 15.8094M21.25 10.3333C20.5833 9 21.25 7 23.25 7C26.25 7 26.25 11.5 23.25 11.5C22.25 11.5 21.5833 11 21.25 10.3333ZM15.25 15.8094C14.762 16.232 14.0953 16.5 13.25 16.5C12.5081 16.5 11.9038 16.2936 11.4371 15.9573M15.25 15.8094L19.8425 20.5M19.8425 20.5C20.1994 19.9184 20.8353 19.5 21.75 19.5C24.75 19.5 24.75 24 21.75 24C19.6647 24 19.0289 21.8259 19.8425 20.5ZM11.4371 15.9573L7.01937 21.8456M11.4371 15.9573C10.3613 15.1822 10.0167 13.7171 10.4033 12.5M7.01937 21.8456C6.68285 21.6299 6.25973 21.5 5.75 21.5C2.75 21.5 2.75 26 5.75 26C8.24027 26 8.66339 22.8993 7.01937 21.8456ZM10.4033 12.5L5.43241 11.3291M5.43241 11.3291C5.73744 10.0488 5.00997 8.5 3.25 8.5C0.25 8.5 0.25 13 3.25 13C4.49003 13 5.2175 12.2312 5.43241 11.3291Z" stroke="#0A64A3"/>
</svg>
