<svg width="34" height="34" viewBox="0 0 34 34" fill="none" xmlns="http://www.w3.org/2000/svg">
<g clip-path="url(#clip0_3_180)">
<path d="M10.9248 26.4107C11.19 26.4107 11.4443 26.3053 11.6318 26.1178C11.8193 25.9303 11.9246 25.676 11.9247 25.4109L11.8914 9.97402C11.8914 9.31737 12.0207 8.66714 12.2719 8.06046C12.5232 7.45378 12.8914 6.90252 13.3557 6.43817C14.2934 5.50036 15.5652 4.97346 16.8914 4.97336C18.2175 4.97327 19.4894 5.49999 20.4272 6.43767C21.365 7.37534 21.8919 8.64715 21.892 9.97331L21.9224 24.9223C21.9161 25.7136 21.5973 26.4705 21.0354 27.0279C20.4736 27.5853 19.7143 27.8981 18.9229 27.8982C18.1315 27.8983 17.3721 27.5856 16.8101 27.0284C16.2482 26.4711 15.9292 25.7144 15.9226 24.923L15.8922 9.97402C15.8979 9.71062 16.005 9.45957 16.1913 9.27327C16.3776 9.08698 16.6287 8.97982 16.8921 8.97417C17.1572 8.97421 17.4115 9.07957 17.599 9.26706C17.7865 9.45456 17.8919 9.70886 17.8919 9.97402L17.9223 23.2867C17.9269 23.5489 18.0342 23.7988 18.2212 23.9826C18.4083 24.1664 18.66 24.2693 18.9222 24.2693C19.1844 24.2693 19.4361 24.1664 19.6231 23.9826C19.8101 23.7988 19.9175 23.5489 19.922 23.2867L19.8916 9.97402C19.8917 9.58001 19.8141 9.18986 19.6633 8.82583C19.5125 8.46181 19.2915 8.13105 19.0129 7.85245C18.7343 7.57384 18.4036 7.35284 18.0396 7.20208C17.6755 7.05131 17.2854 6.97373 16.8914 6.97377C16.1015 6.99225 15.349 7.31429 14.7903 7.87299C14.2316 8.43169 13.9096 9.18412 13.8911 9.97402L13.9229 24.923C13.9397 26.238 14.4739 27.4934 15.4097 28.4174C16.3456 29.3413 17.6078 29.8593 18.9229 29.8592C20.238 29.8592 21.5001 29.3409 22.4358 28.4169C23.3716 27.4928 23.9056 26.2373 23.9221 24.9223L23.8917 9.97331C23.8917 8.1167 23.1542 6.33614 21.8414 5.02331C20.5285 3.71049 18.748 2.97296 16.8914 2.97296C15.0348 2.97296 13.2542 3.71049 11.9414 5.02331C10.6285 6.33614 9.89101 8.1167 9.89101 9.97331L9.92212 25.408C9.92177 25.5398 9.94746 25.6704 9.99773 25.7922C10.048 25.914 10.1218 26.0246 10.215 26.1178C10.3082 26.211 10.4189 26.2848 10.5407 26.3351C10.6625 26.3854 10.793 26.4111 10.9248 26.4107V26.4107Z" fill="white"/>
</g>
<defs>
<clipPath id="clip0_3_180">
<rect width="24" height="24" fill="white" transform="translate(33.9409 16.9707) rotate(135)"/>
</clipPath>
</defs>
</svg>
